<?xml version="1.0" encoding="utf-8"?>
<!-- Generator: Adobe Illustrator 22.1.0, SVG Export Plug-In . SVG Version: 6.00 Build 0)  -->
<svg version="1.1" id="Layer_1" xmlns="http://www.w3.org/2000/svg" xmlns:xlink="http://www.w3.org/1999/xlink" x="0px" y="0px"
	 viewBox="0 0 107.8 47.5" style="enable-background:new 0 0 107.8 47.5;" xml:space="preserve">
<style type="text/css">
	.st0{fill:#FFFFFF;}
</style>
<g>
	<g>
		<path class="st0" d="M7.8,32.3c2,0,3.7,0.7,5.1,2c1.4,1.3,2.3,3,2.4,5c0,0.3,0,0.6,0,0.7v0.1v0.1H1.3c0.1,1.7,0.7,3.1,2,4.4
			c1.3,1.1,2.7,1.9,4.6,1.9c1.3,0,2.6-0.4,3.7-1.1s1.9-1.7,2.4-2.8h1.1c-0.6,1.4-1.4,2.7-2.7,3.6c-1.3,1-2.8,1.4-4.4,1.4
			c-2.1,0-4-0.7-5.4-2.3c-1.4-1.4-2.3-3.3-2.3-5.4c0-2.1,0.7-3.8,2.3-5.4C4,33,5.9,32.3,7.8,32.3z M14.4,39.1
			c-0.1-1.7-0.9-3-2.1-4.1c-1.3-1.1-2.7-1.7-4.4-1.7S4.7,33.8,3.4,35c-1.3,1.1-2,2.6-2.1,4.1H14.4z"/>
		<path class="st0" d="M48,32.3c0.6,0,1.1,0.1,1.7,0.3v1.1c-0.6-0.1-1.1-0.3-1.7-0.3c-1.6,0-2.8,0.6-3.8,1.6
			c-1.1,1.1-1.6,2.4-1.6,3.8v8.1h-1.1v-8.3c0-1.9,0.6-3.4,1.9-4.7C44.6,32.8,46.1,32.3,48,32.3z"/>
		<path class="st0" d="M62.2,32.3c2,0,3.7,0.7,5.1,2c1.4,1.3,2.3,3,2.4,5c0,0.3,0,0.6,0,0.7v0.1v0.1H55.5c0.1,1.7,0.7,3.1,2,4.4
			c1.3,1.1,2.7,1.9,4.6,1.9c1.3,0,2.6-0.4,3.7-1.1s1.9-1.7,2.4-2.8h1.1c-0.6,1.4-1.4,2.7-2.7,3.6c-1.3,1-2.8,1.4-4.4,1.4
			c-2.1,0-4-0.7-5.4-2.3c-1.4-1.4-2.3-3.3-2.3-5.4c0-2.1,0.7-3.8,2.3-5.4C58.2,33,60.1,32.3,62.2,32.3z M68.8,39.1
			c-0.1-1.7-0.9-3-2.1-4.1c-1.3-1.1-2.7-1.7-4.4-1.7c-1.7,0-3.1,0.6-4.4,1.7c-1.3,1.1-2,2.6-2.1,4.1H68.8z"/>
		<path class="st0" d="M75.9,28.7H77v12.8l1.9-1.9l0.7-0.7l6.3-6.3h1.6l-7.1,7l7,7.1h-1.6l-6.1-6.3L77,43.1v3.8h-1.1V28.7z"/>
		<path class="st0" d="M106.6,43.8c-0.7,1.1-1.6,2-2.7,2.7s-2.4,1-3.8,1c-2.1,0-4-0.7-5.4-2.3c-1.4-1.6-2.3-3.3-2.3-5.4
			c0-2.1,0.7-3.8,2.3-5.4c1.6-1.6,3.3-2.3,5.4-2.3c2.1,0,3.8,0.7,5.4,2.3c1.6,1.4,2.3,3.3,2.3,5.4v7.1h-1.1V43.8z M106.6,39.8
			c0-1.9-0.7-3.4-1.9-4.7c-1.3-1.3-2.8-2-4.7-2s-3.4,0.7-4.7,2c-1.3,1.3-1.9,2.8-1.9,4.7s0.6,3.4,1.9,4.7s2.8,2,4.7,2s3.4-0.7,4.7-2
			C105.9,43.2,106.6,41.7,106.6,39.8z"/>
		<path class="st0" d="M34.7,17.8V41c0,1.9-0.7,3.4-2,4.7c-1.3,1.3-2.8,1.9-4.7,1.9c-1.9,0-3.4-0.7-4.7-1.9
			c-1.3-1.3-1.9-2.8-1.9-4.7v-8.3h1.1V41c0,1.6,0.6,2.8,1.6,3.8c1.1,1.1,2.4,1.6,3.8,1.6c1.6,0,2.8-0.6,3.8-1.6
			c1.1-1.1,1.6-2.4,1.6-3.8V17.8H34.7z"/>
	</g>
	<g>
		<g>
			<g>
				<path class="st0" d="M36.3,11.5L35,11.6l-0.4-1.1c0-0.1-0.1-0.3-0.3-0.3c-0.1,0-0.3,0.1-0.3,0.3l-0.6,1.1l-1.3-0.1
					c-0.1,0-0.3,0-0.4,0.1c-0.1,0.1,0,0.3,0,0.4l0.7,1l-0.7,1c-0.1,0.1-0.1,0.3,0,0.4c0.1,0.1,0.3,0.1,0.4,0.1l1.3-0.1l0.4,1.1
					c0,0.1,0.1,0.3,0.3,0.3c0.1,0,0.3-0.1,0.3-0.3l0.6-1.1l1.3,0.1c0.1,0,0.1,0,0.3-0.1c0,0,0.1,0,0.1-0.1c0.1-0.1,0-0.3,0-0.4
					l-0.7-1l0.7-1c0.1-0.1,0.1-0.3,0-0.4C36.6,11.6,36.5,11.5,36.3,11.5z M35.2,12.9c-0.1,0.1-0.1,0.3,0,0.4l0.3,0.6l-0.7-0.1
					c-0.1,0-0.1,0-0.3,0.1L34.3,14L34,14.6L33.8,14c0-0.1-0.3-0.3-0.4-0.3h-0.7l0.4-0.6c0.1-0.1,0.1-0.3,0-0.4l-0.4-0.6l0.7,0.1
					c0.1,0,0.3,0,0.4-0.3l0.3-0.6l0.3,0.6c0,0.1,0.3,0.3,0.4,0.3h0.7L35.2,12.9z"/>
			</g>
		</g>
		<g>
			<g>
				<path class="st0" d="M30.5,13.9l-3.7,1.3c-0.1,0-0.3,0.3-0.3,0.4c0,0.1,0.3,0.3,0.4,0.3l3.7-1.3h0.1c0.1-0.1,0.1-0.3,0.1-0.4
					C30.9,13.9,30.6,13.8,30.5,13.9z"/>
			</g>
		</g>
		<g>
			<g>
				<path class="st0" d="M31.2,10.3l-4-3c-0.1-0.1-0.4-0.1-0.6,0.1c-0.1,0.1-0.1,0.4,0.1,0.6l4,3c0.1,0.1,0.3,0.1,0.4,0
					c0,0,0,0,0.1-0.1C31.5,10.6,31.3,10.3,31.2,10.3z"/>
			</g>
		</g>
		<g>
			<g>
				<path class="st0" d="M34.3,3.4c-0.1,0-0.4,0.1-0.4,0.4v5.3c0,0.1,0.1,0.4,0.4,0.4c0.1,0,0.1,0,0.3-0.1c0.1,0,0.1-0.1,0.1-0.3
					V3.8C34.7,3.5,34.5,3.4,34.3,3.4z"/>
			</g>
		</g>
		<g>
			<g>
				<path class="st0" d="M30.9,5.8c-0.1,0.1-0.3,0.3-0.1,0.6l1.9,4c0.1,0.1,0.3,0.3,0.6,0.1c0,0,0,0,0.1,0c0.1-0.1,0.1-0.3,0.1-0.4
					l-1.9-4.1C31.3,5.8,31,5.8,30.9,5.8z"/>
			</g>
		</g>
		<g>
			<g>
				<path class="st0" d="M30.6,12.1l-2.8-0.6c-0.1,0-0.4,0.1-0.4,0.3c0,0.1,0.1,0.4,0.3,0.4l2.8,0.6c0.1,0,0.3,0,0.3,0
					c0.1,0,0.1-0.1,0.1-0.3C31,12.2,30.9,12.1,30.6,12.1z"/>
			</g>
		</g>
		<g>
			<g>
				<path class="st0" d="M31.6,15.5c-0.1-0.1-0.4-0.1-0.6,0l-1.7,1.4c-0.1,0.1-0.1,0.4,0,0.6c0.1,0.1,0.4,0.1,0.6,0l0,0l1.7-1.4
					C31.8,15.8,31.8,15.6,31.6,15.5z"/>
			</g>
		</g>
		<g>
			<g>
				<path class="st0" d="M25.8,5.2c-0.3-0.3-0.6-0.3-0.9-0.4c-0.7,0-1.1,0.6-1.1,1.1c0,0.7,0.6,1.1,1.1,1.1c0.3,0,0.6-0.1,0.7-0.3
					c0,0,0.1,0,0.1-0.1c0.3-0.3,0.3-0.6,0.4-0.9C26.1,5.8,26.1,5.5,25.8,5.2z M25.4,6.1c0,0.1,0,0.3-0.1,0.3
					c-0.1,0.1-0.1,0.1-0.3,0.1c-0.1,0-0.3,0-0.3-0.1c-0.1-0.1-0.1-0.1-0.1-0.3c0-0.1,0-0.3,0.1-0.3c0.1-0.1,0.1-0.1,0.3-0.1
					s0.3,0,0.3,0.1C25.4,5.9,25.4,5.9,25.4,6.1z"/>
			</g>
		</g>
		<g>
			<g>
				<path class="st0" d="M25.4,15.5c-0.3-0.3-0.6-0.3-0.9-0.4c-0.3-0.1-0.6,0.1-0.9,0.3c-0.3,0.3-0.3,0.6-0.4,0.9
					c0,0.3,0.1,0.6,0.3,0.9c0.3,0.3,0.6,0.3,0.9,0.4c0.3,0,0.6-0.1,0.7-0.3c0,0,0.1,0,0.1-0.1c0.3-0.3,0.3-0.6,0.4-0.9
					C25.6,15.9,25.5,15.6,25.4,15.5z M24.9,16.3c0,0.1,0,0.3-0.1,0.3c-0.1,0.1-0.1,0.1-0.3,0.1s-0.3,0-0.3-0.1
					c-0.1-0.1-0.1-0.1-0.1-0.3s0-0.3,0.1-0.3l0,0c0.1,0,0.1-0.1,0.3-0.1s0.3,0,0.3,0.1C24.8,16,24.9,16.2,24.9,16.3z"/>
			</g>
		</g>
		<g>
			<g>
				<path class="st0" d="M34.3,0.1c-0.3,0-0.6,0.1-0.9,0.3C33.2,0.7,33.2,1,33,1.2s0.1,0.6,0.3,0.9c0.3,0.3,0.6,0.3,0.9,0.4
					c0.3,0,0.6-0.1,0.7-0.3c0.4-0.1,0.6-0.6,0.6-0.9C35.5,0.7,35,0.1,34.3,0.1z M34.7,1.4c0,0.3-0.1,0.4-0.4,0.4
					c-0.1,0-0.3,0-0.3-0.1c-0.1-0.1-0.1-0.1-0.1-0.3s0-0.3,0.1-0.3l0,0c0.1,0,0.1-0.1,0.3-0.1C34.6,0.8,34.7,1.1,34.7,1.4z"/>
			</g>
		</g>
		<g>
			<g>
				<path class="st0" d="M41.7,15.2L38,13.9c-0.1,0-0.4,0-0.4,0.3c0,0.1,0,0.4,0.3,0.4l3.7,1.3c0.1,0,0.3,0,0.4,0l0.1-0.1
					C42,15.5,41.9,15.3,41.7,15.2z"/>
			</g>
		</g>
		<g>
			<g>
				<path class="st0" d="M41.4,7.4l-4.1,3c-0.1,0.1-0.1,0.4-0.1,0.6c0.1,0.1,0.4,0.1,0.6,0.1l4.1-3l0,0C42,7.9,42,7.6,42,7.5
					C41.7,7.4,41.6,7.4,41.4,7.4z"/>
			</g>
		</g>
		<g>
			<g>
				<path class="st0" d="M37.7,5.9c-0.1-0.1-0.4,0-0.6,0.1l-2,4c-0.1,0.1,0,0.4,0.1,0.6c0.1,0,0.3,0,0.4,0l0.1-0.1l2-4
					C38,6.2,37.9,5.9,37.7,5.9z"/>
			</g>
		</g>
		<g>
			<g>
				<path class="st0" d="M40.7,11.6l-2.8,0.6c-0.1,0-0.3,0.3-0.3,0.4c0,0.1,0.3,0.3,0.4,0.3l2.8-0.6c0,0,0.1,0,0.1-0.1
					c0,0,0.1-0.1,0.1-0.3C41,11.6,40.9,11.5,40.7,11.6z"/>
			</g>
		</g>
		<g>
			<g>
				<path class="st0" d="M38.9,16.9l-1.6-1.4c-0.1-0.1-0.4-0.1-0.6,0c-0.1,0.1-0.1,0.4,0,0.6l1.6,1.4c0.1,0.1,0.3,0.1,0.4,0l0,0
					C39,17.3,39,17,38.9,16.9z"/>
			</g>
		</g>
		<g>
			<g>
				<path class="st0" d="M43.7,5.1c-0.3,0-0.6,0.1-0.9,0.3c-0.3,0.3-0.4,0.6-0.4,0.9c0,0.3,0.1,0.6,0.3,0.9c0.3,0.3,0.6,0.3,0.9,0.4
					c0.3,0,0.6-0.1,0.7-0.3c0,0,0.1,0,0.1-0.1c0.3-0.3,0.3-0.6,0.4-0.9C44.9,5.7,44.3,5.1,43.7,5.1z M44,6.2c0,0.1,0,0.3-0.1,0.3
					c-0.1,0.1-0.1,0.1-0.3,0.1c-0.1,0-0.3,0-0.3-0.1c-0.1-0.1-0.1-0.1-0.1-0.3s0-0.3,0.1-0.3l0,0c0.1,0,0.1-0.1,0.3-0.1
					C43.9,5.8,44.1,6.1,44,6.2z"/>
			</g>
		</g>
		<g>
			<g>
				<path class="st0" d="M44,15.2c-0.7,0-1.1,0.6-1.1,1.1c0,0.7,0.6,1.1,1.1,1.1c0.3,0,0.6-0.1,0.7-0.3c0,0,0.1,0,0.1-0.1
					c0.3-0.3,0.3-0.6,0.4-0.9C45.1,15.8,44.6,15.2,44,15.2z M44.4,16.5c0,0.1,0,0.3-0.1,0.3c-0.1,0.1-0.1,0.1-0.3,0.1
					c-0.3,0-0.4-0.1-0.4-0.4c0-0.1,0-0.3,0.1-0.3C43.9,16,43.9,16,44,16C44.1,16,44.4,16.2,44.4,16.5z"/>
			</g>
		</g>
	</g>
</g>
</svg>
