<?xml version="1.0" encoding="utf-8"?>
<!-- Generator: Adobe Illustrator 22.1.0, SVG Export Plug-In . SVG Version: 6.00 Build 0)  -->
<svg version="1.1" id="Layer_1" xmlns="http://www.w3.org/2000/svg" xmlns:xlink="http://www.w3.org/1999/xlink" x="0px" y="0px"
	 viewBox="0 0 34.1 33.7" style="enable-background:new 0 0 34.1 33.7;" xml:space="preserve">
<style type="text/css">
	.st0{fill:#FFFFFF;}
</style>
<g>
	<g>
		<path class="st0" d="M16.3,33.7V22.1h1.4v11.6"/>
	</g>
	<g>
		<g>
			<g>
				<path class="st0" d="M19.8,15.2l-1.6,0.2l-0.7-1.5c-0.1-0.2-0.3-0.3-0.5-0.3c-0.2,0-0.4,0.1-0.5,0.3l-0.7,1.5l-1.6-0.2
					c-0.2,0-0.4,0.1-0.5,0.2c-0.1,0.2-0.1,0.4,0,0.5l1,1.3l-1,1.3c-0.1,0.2-0.1,0.4,0,0.5c0.1,0.2,0.3,0.3,0.5,0.2l1.6-0.2l0.7,1.5
					c0.1,0.2,0.3,0.3,0.5,0.3c0.2,0,0.4-0.1,0.5-0.3l0.7-1.5l1.6,0.2c0.1,0,0.3,0,0.4-0.1c0.1,0,0.1-0.1,0.1-0.1
					c0.1-0.2,0.1-0.4,0-0.5l-1-1.3l1-1.3c0.1-0.2,0.1-0.4,0-0.5C20.2,15.2,20,15.1,19.8,15.2z M18.2,17c-0.1,0.2-0.1,0.4,0,0.6
					l0.5,0.7l-0.9-0.1c-0.1,0-0.3,0-0.4,0.1c-0.1,0-0.1,0.1-0.2,0.2L17,19.2l-0.3-0.8c-0.1-0.2-0.3-0.3-0.5-0.3l-0.9,0.1l0.5-0.7
					c0.1-0.2,0.1-0.4,0-0.6l-0.5-0.7l0.9,0.1c0.2,0,0.4-0.1,0.5-0.3l0.3-0.8l0.3,0.8c0.1,0.2,0.3,0.3,0.5,0.3l0.9-0.1L18.2,17z"/>
			</g>
		</g>
		<g>
			<g>
				<path class="st0" d="M12,18.3L7.1,20c-0.3,0.1-0.4,0.4-0.3,0.6c0.1,0.3,0.4,0.4,0.6,0.3l4.9-1.7c0.1,0,0.1,0,0.1-0.1
					c0.2-0.1,0.2-0.3,0.2-0.6C12.6,18.4,12.3,18.2,12,18.3z"/>
			</g>
		</g>
		<g>
			<g>
				<path class="st0" d="M13.1,13.6L7.7,9.7C7.5,9.5,7.2,9.5,7,9.8c-0.2,0.2-0.1,0.5,0.1,0.7l5.3,3.9c0.2,0.1,0.4,0.1,0.6,0
					c0,0,0.1-0.1,0.1-0.1C13.3,14.1,13.3,13.7,13.1,13.6z"/>
			</g>
		</g>
		<g>
			<g>
				<path class="st0" d="M17.1,4.4c-0.3,0-0.5,0.2-0.5,0.5l0,7c0,0.3,0.2,0.5,0.5,0.5c0.1,0,0.2,0,0.3-0.1c0.1-0.1,0.2-0.2,0.2-0.4
					l0-7C17.6,4.7,17.4,4.4,17.1,4.4z"/>
			</g>
		</g>
		<g>
			<g>
				<path class="st0" d="M12.6,7.7c-0.3,0.1-0.4,0.4-0.2,0.7l2.5,5.4c0.1,0.3,0.4,0.4,0.7,0.2c0,0,0.1,0,0.1-0.1
					c0.2-0.1,0.2-0.4,0.1-0.6l-2.5-5.4C13.1,7.7,12.8,7.6,12.6,7.7z"/>
			</g>
		</g>
		<g>
			<g>
				<path class="st0" d="M12.3,15.9l-3.8-0.7C8.3,15.1,8,15.3,8,15.5c-0.1,0.3,0.1,0.5,0.4,0.6l3.8,0.7c0.1,0,0.3,0,0.4-0.1
					c0.1-0.1,0.2-0.2,0.2-0.3C12.8,16.2,12.6,15.9,12.3,15.9z"/>
			</g>
		</g>
		<g>
			<g>
				<path class="st0" d="M13.6,20.3c-0.2-0.2-0.5-0.2-0.7,0l-2.2,1.9c-0.2,0.2-0.2,0.5,0,0.7c0.2,0.2,0.5,0.2,0.7,0.1c0,0,0,0,0,0
					l2.2-1.9C13.8,20.8,13.8,20.5,13.6,20.3z"/>
			</g>
		</g>
		<g>
			<g>
				<path class="st0" d="M5.9,7C5.6,6.7,5.2,6.5,4.7,6.5c-0.9,0-1.6,0.7-1.6,1.6c0,0.9,0.7,1.6,1.6,1.6c0.4,0,0.7-0.1,1-0.3
					c0.1,0,0.1-0.1,0.2-0.1c0.3-0.3,0.5-0.7,0.5-1.1C6.3,7.7,6.2,7.3,5.9,7z M5.3,8.1c0,0.2-0.1,0.3-0.2,0.4C5,8.6,4.9,8.7,4.7,8.7
					c-0.2,0-0.3-0.1-0.4-0.2C4.2,8.4,4.2,8.3,4.2,8.1c0-0.2,0.1-0.3,0.2-0.5c0.1-0.1,0.2-0.1,0.3-0.1c0.2,0,0.3,0.1,0.4,0.2
					C5.3,7.8,5.3,8,5.3,8.1z"/>
			</g>
		</g>
		<g>
			<g>
				<path class="st0" d="M5.3,20.4c-0.3-0.3-0.7-0.5-1.1-0.5s-0.8,0.2-1.1,0.5c-0.3,0.3-0.5,0.7-0.5,1.1c0,0.4,0.2,0.8,0.5,1.1
					c0.3,0.3,0.7,0.5,1.1,0.5c0.4,0,0.7-0.1,1-0.3c0.1,0,0.1-0.1,0.2-0.1c0.3-0.3,0.5-0.7,0.5-1.1C5.7,21.1,5.6,20.7,5.3,20.4z
					 M4.7,21.5c0,0.2-0.1,0.3-0.2,0.4c-0.1,0.1-0.3,0.2-0.4,0.2c-0.2,0-0.3-0.1-0.4-0.2c-0.1-0.1-0.2-0.3-0.2-0.4
					c0-0.2,0.1-0.3,0.2-0.4c0,0,0,0,0.1,0C3.9,21,4,20.9,4.2,20.9c0.2,0,0.3,0.1,0.4,0.2C4.7,21.2,4.7,21.4,4.7,21.5z"/>
			</g>
		</g>
		<g>
			<g>
				<path class="st0" d="M17.1,0.1c-0.4,0-0.8,0.2-1.1,0.5c-0.3,0.3-0.5,0.7-0.5,1.1s0.2,0.8,0.5,1.1c0.3,0.3,0.7,0.5,1.1,0.5
					c0.4,0,0.7-0.1,1-0.3c0.4-0.3,0.6-0.7,0.6-1.2C18.7,0.9,18,0.1,17.1,0.1z M17.7,1.7c0,0.3-0.3,0.6-0.6,0.6
					c-0.2,0-0.3-0.1-0.4-0.2c-0.1-0.1-0.2-0.3-0.2-0.4c0-0.2,0.1-0.3,0.2-0.4c0,0,0,0,0.1,0c0.1-0.1,0.2-0.1,0.3-0.1
					C17.4,1.1,17.7,1.4,17.7,1.7z"/>
			</g>
		</g>
		<g>
			<g>
				<path class="st0" d="M26.9,20L22,18.3c-0.3-0.1-0.5,0-0.6,0.3c-0.1,0.3,0,0.5,0.3,0.6l4.9,1.7c0.2,0.1,0.3,0,0.5-0.1
					c0.1-0.1,0.1-0.1,0.2-0.2C27.3,20.4,27.2,20.1,26.9,20z"/>
			</g>
		</g>
		<g>
			<g>
				<path class="st0" d="M26.4,9.7L21,13.6c-0.2,0.2-0.3,0.5-0.1,0.7c0.2,0.2,0.5,0.3,0.7,0.1l5.4-3.9c0,0,0,0,0,0
					c0.2-0.2,0.3-0.5,0.1-0.7C27,9.6,26.6,9.6,26.4,9.7z"/>
			</g>
		</g>
		<g>
			<g>
				<path class="st0" d="M21.6,7.7c-0.3-0.1-0.5,0-0.7,0.2l-2.5,5.4c-0.1,0.3,0,0.5,0.2,0.7c0.2,0.1,0.4,0.1,0.5-0.1
					c0.1,0,0.1-0.1,0.1-0.2l2.5-5.4C21.9,8.1,21.8,7.8,21.6,7.7z"/>
			</g>
		</g>
		<g>
			<g>
				<path class="st0" d="M25.5,15.2l-3.8,0.7c-0.3,0.1-0.5,0.3-0.4,0.6c0.1,0.3,0.3,0.5,0.6,0.4l3.8-0.7c0.1,0,0.2,0,0.2-0.1
					c0.1-0.1,0.2-0.3,0.2-0.5C26.1,15.3,25.8,15.1,25.5,15.2z"/>
			</g>
		</g>
		<g>
			<g>
				<path class="st0" d="M23.3,22.3l-2.1-2c-0.2-0.2-0.5-0.2-0.7,0c-0.2,0.2-0.2,0.5,0,0.7l2.1,2c0.2,0.2,0.5,0.2,0.6,0
					c0,0,0,0,0.1-0.1C23.5,22.8,23.5,22.5,23.3,22.3z"/>
			</g>
		</g>
		<g>
			<g>
				<path class="st0" d="M29.4,6.6c-0.4,0-0.8,0.2-1.1,0.5c-0.3,0.3-0.5,0.7-0.5,1.1c0,0.4,0.2,0.8,0.5,1.1c0.3,0.3,0.7,0.5,1.1,0.5
					c0.4,0,0.7-0.1,1-0.3c0.1,0,0.1-0.1,0.2-0.1C30.8,9,31,8.6,31,8.2C31,7.3,30.3,6.6,29.4,6.6z M30,8.2c0,0.2-0.1,0.3-0.2,0.4
					c-0.1,0.1-0.3,0.2-0.4,0.2c-0.2,0-0.3-0.1-0.4-0.2c-0.1-0.1-0.2-0.3-0.2-0.4c0-0.2,0.1-0.3,0.2-0.4c0,0,0,0,0.1,0
					c0.1-0.1,0.2-0.1,0.3-0.1C29.7,7.6,30,7.9,30,8.2z"/>
			</g>
		</g>
		<g>
			<g>
				<path class="st0" d="M29.9,20c-0.9,0-1.6,0.7-1.6,1.6c0,0.9,0.7,1.6,1.6,1.6c0.4,0,0.7-0.1,1-0.3c0.1,0,0.1-0.1,0.2-0.1
					c0.3-0.3,0.5-0.7,0.5-1.1C31.5,20.7,30.8,20,29.9,20z M30.5,21.6c0,0.2-0.1,0.3-0.2,0.4c-0.1,0.1-0.3,0.2-0.4,0.2
					c-0.3,0-0.6-0.3-0.6-0.6c0-0.2,0.1-0.3,0.2-0.4c0.1-0.1,0.3-0.2,0.4-0.2C30.2,21,30.5,21.3,30.5,21.6z"/>
			</g>
		</g>
	</g>
</g>
</svg>
