<?xml version="1.0" encoding="utf-8"?>
<!-- Generator: Adobe Illustrator 22.0.1, SVG Export Plug-In . SVG Version: 6.00 Build 0)  -->
<svg version="1.1" id="Layer_1" xmlns="http://www.w3.org/2000/svg" xmlns:xlink="http://www.w3.org/1999/xlink" x="0px" y="0px"
	 viewBox="0 0 158 158" style="enable-background:new 0 0 158 158;" xml:space="preserve">
<style type="text/css">
	.st0{fill:#E91D25;}
	.st1{fill:#333333;}
	.st2{fill:#666766;}
	.st3{fill:#706F6E;}
	.st4{fill-rule:evenodd;clip-rule:evenodd;fill:#706F6E;}
	.st5{fill-rule:evenodd;clip-rule:evenodd;}
	.st6{fill-rule:evenodd;clip-rule:evenodd;fill:#E91D25;}
	.st7{fill:#EA1D25;}
	.st8{fill:#FFFFFF;}
	.st9{fill-rule:evenodd;clip-rule:evenodd;fill:#FFFFFF;}
</style>
<g>
	<g>
		<path class="st8" d="M147,135.8c-1.7,0.9-19.1,13-21.8,14.9c-2.1,1.5-6.3,3.9-7.9,5.8h2.2c14.4,0,26.8-8.2,32.9-20.2
			c-0.1-0.6-0.4-1.2-0.8-1.6C150.1,133.2,148.7,134.9,147,135.8z"/>
		<path class="st8" d="M16.3,85.4c0.7-2,0.4-3-0.5-5.4L1.5,42.9v38.3c4.6,1.6,8.1,2.7,9,3C13.3,85.2,15.8,86.8,16.3,85.4z"/>
		<path class="st8" d="M31,131.1c2.9-1.1,2.1-5.9,1.1-7.9c-0.9-2.1-9.7-23.6-10.5-26.4c0,0-0.9-2.5-3-4c-2.1-1.5-2.6-1.5-5.5-2.1
			c-2.6-0.5-8.6-2-11.7-2.7v31.7c0,2.5,0.3,4.9,0.7,7.3C7,129.1,28.4,132.1,31,131.1z"/>
		<path class="st8" d="M9.5,33.7c1.8-0.7,1.3-0.6,3.2-1.4L77,1.5H38.4c-15.8,0-29.3,10-34.5,24C5,28.3,6.2,31.1,6.5,32
			C7.1,33.9,7.7,34.4,9.5,33.7z"/>
		<path class="st8" d="M59.5,19.7c-0.3,1.3,1.6,2.9,1.6,2.9l24.3,21c0,0,1.5,1.1,2.6,0.9c0.9-0.2,2.8-1.7,3.9-3.2L125.3,2
			c-1.9-0.3-3.8-0.5-5.7-0.5h-26L62.5,16.6C60.6,17.6,59.8,18.4,59.5,19.7z"/>
		<path class="st8" d="M154.8,62.1l-16.3-5c0,0-3.3-1.1-4.1,0.1c-0.9,1.2-0.2,3.6-0.2,3.6l13.7,54.5c0.6,1.8,0.7,2.8,3.1,2.7
			c2.4-0.1,2.1-1.1,2.4-4.7c0.2-3.5,2.9-42.6,3.1-46v-3.5c-0.1-0.2-0.1-0.4-0.2-0.5C155.6,62.3,155.5,62.4,154.8,62.1z"/>
		<path class="st8" d="M123.8,17.8c-0.2,1.2,0.5,4.3,0.5,4.3l4.7,19.2c0.2,1.1,0.9,2,1.5,2.6c0.6,0.6,1.7,1,1.7,1l21.6,6.6
			c1,0.1,1.8,0.4,2.7,0.3V38.4c0-15.3-9.4-28.5-22.7-34.1c-2.9,3.4-5.7,6.8-8.3,9.9C124.5,15.4,124,16.6,123.8,17.8z"/>
		<path class="st8" d="M103.9,74.7c0.5-0.9-0.4-3-1.9-4.1L51.5,25.9c-0.8-0.9-2.1-1.7-3.2-1.6c-1.1,0.1-3.3,1-3.3,1L13.9,40.4
			c-1.4,0.8-2.2,0.9-2.6,2.5c-0.4,1.6,1.1,4.7,1.1,4.7l4.4,10.9c0,0,1,1.9,1.5,2.3c0.6,0.4,0.9,0.6,1.6,0.7l79.6,13.8
			C99.4,75.4,103,76.5,103.9,74.7z"/>
		<path class="st8" d="M75.3,130.3c2-1.8,46.8-37.6,46.7-39.9c-0.2-2.3-2.6-2.5-4.5-2.8c0,0-34.1-5.8-38.7-7
			c-4.7-1.2-4.9,1.8-5.3,3.9c-0.3,2-10.7,40-10.2,43.2c0.5,3.1,5.1,4,7.3,5C72.7,133.6,73.3,132.1,75.3,130.3z"/>
		<path class="st8" d="M3.8,132.3c5.2,14.1,18.7,24.2,34.6,24.2h35.3L3.8,132.3z"/>
		<path class="st8" d="M97.9,54.1L121.1,74c0,0,3.6,3,4.9,1.9c0.7-0.6,0.3-2.5-0.1-4.2l-9.5-39.1c-0.2-0.6-0.6-2.5-2.2-2.8
			c-1.6-0.2-3,1.3-3.9,2.4L97.1,47.2c-1.3,1.3-1.9,2.1-1.9,3.5C95,51.9,97.9,54.1,97.9,54.1z"/>
		<path class="st8" d="M59.4,77.1c-3.1-0.4-28.1-5.5-31.8-5.8c0,0-2.6-0.9-4,0.5c-1.5,1.5,0,4.2,0.9,6.2c0.9,2,15.2,41.7,17.7,45.7
			c2.6,4,5.9,5.1,8,4.9c2.2-0.2,3.1-1.8,4-4.8c0.9-2.9,9.7-34.9,10.8-40C66.2,78.7,62.5,77.4,59.4,77.1z"/>
		<path class="st8" d="M77.3,142.7c0,2,2.6,2.6,4.5,3.3c1.8,0.7,13.9,5.3,17.9,6.8c4,1.5,6.5-1.3,8.3-2.6
			c1.8-1.3,24.5-17.2,28.6-20.2c4.1-3,3-3.2,2.7-5.1l-6.1-24.6c-0.1-0.3,0-1.3-1.9-2.1c-1.8-0.8-2.7,0-4.6,1.8
			c-1.8,1.8-43.3,36.5-45.2,38.1C79.3,140,77.3,140.7,77.3,142.7z"/>
	</g>
</g>
</svg>
